<?xml version="1.0" standalone="no"?>
<!DOCTYPE svg PUBLIC "-//W3C//DTD SVG 20010904//EN"
 "http://www.w3.org/TR/2001/REC-SVG-20010904/DTD/svg10.dtd">
<svg version="1.0" xmlns="http://www.w3.org/2000/svg"
 width="300.000000pt" height="150.000000pt" viewBox="0 0 300.000000 150.000000"
 preserveAspectRatio="xMidYMid meet">
<metadata>
Created by potrace 1.10, written by Peter Selinger 2001-2011
</metadata>
<g transform="translate(0.000000,150.000000) scale(0.100000,-0.100000)"
fill="#000000" stroke="none">
<path d="M1178 1309 c-22 -12 -23 -42 -4 -59 35 -28 93 11 70 48 -13 20 -42
26 -66 11z"/>
<path d="M274 1253 c-10 -32 -135 -306 -164 -360 l-28 -53 54 0 c51 0 54 2 54
24 0 14 4 36 10 50 9 26 10 26 130 26 l121 0 15 -36 c8 -20 13 -43 10 -50 -4
-11 8 -14 56 -14 58 0 60 1 45 18 -15 16 -168 344 -181 390 -7 19 -14 22 -62
22 -43 0 -56 -4 -60 -17z m156 -254 c0 -5 -43 -9 -95 -9 -58 0 -95 4 -95 10 0
6 14 41 31 78 17 37 38 83 46 102 l16 35 48 -104 c27 -57 49 -107 49 -112z"/>
<path d="M966 1235 c-8 -42 -43 -68 -88 -65 -119 7 -137 5 -169 -19 l-32 -24
7 28 c6 23 4 26 -9 21 -9 -3 -29 -6 -43 -6 l-27 0 3 -165 3 -165 44 0 c44 0
44 1 35 26 -13 33 -13 149 0 196 6 21 19 42 30 48 34 18 87 12 119 -15 l30
-26 3 26 c2 14 6 25 11 25 4 0 21 0 37 0 l30 0 0 -123 c0 -149 8 -162 94 -161
71 0 96 16 96 59 0 35 0 35 -20 15 -26 -26 -66 -35 -85 -20 -12 10 -15 37 -15
124 l0 111 60 -3 c36 -2 60 0 60 6 0 6 3 17 6 26 5 14 -4 16 -60 16 l-66 0 0
50 c0 46 -2 50 -24 50 -19 0 -25 -7 -30 -35z m30 -76 c10 -17 -13 -36 -27 -22
-12 12 -4 33 11 33 5 0 12 -5 16 -11z"/>
<path d="M2456 1251 c-8 -12 4 -95 15 -112 13 -20 25 2 33 58 7 52 2 63 -24
63 -10 0 -21 -4 -24 -9z"/>
<path d="M1356 1166 c-42 -16 -52 -27 -63 -65 -17 -65 33 -105 151 -122 106
-14 128 -24 124 -51 -2 -12 -14 -28 -28 -36 -35 -18 -160 -9 -211 16 l-39 20
6 -37 c4 -20 7 -37 8 -38 1 -2 36 -7 77 -13 89 -13 175 -5 217 20 55 34 52
118 -6 149 -10 6 -60 17 -111 25 -51 8 -99 20 -107 27 -21 17 -17 47 8 60 30
16 165 7 207 -14 19 -9 35 -17 37 -17 10 0 -22 70 -34 75 -38 15 -198 15 -236
1z"/>
<path d="M1735 1167 c-47 -12 -50 -14 -47 -42 2 -17 5 -31 6 -32 2 -2 18 5 37
14 19 9 61 19 95 21 53 4 64 1 87 -19 15 -14 29 -40 33 -61 l6 -38 -36 15
c-49 21 -152 19 -196 -3 -68 -34 -77 -121 -17 -166 40 -29 159 -28 211 2 35
21 36 21 36 2 0 -16 7 -20 38 -20 l37 0 -5 123 c-6 133 -15 160 -66 193 -32
22 -152 28 -219 11z m195 -195 c62 -51 -71 -118 -164 -82 -34 12 -44 54 -21
80 25 28 152 29 185 2z"/>
<path d="M2110 1172 l-35 -3 0 -164 0 -165 40 0 40 0 -3 101 c-4 115 7 153 49
174 43 23 86 19 115 -10 24 -25 25 -29 22 -145 l-3 -120 40 0 40 0 -3 117 c-4
137 -18 178 -72 206 -44 23 -122 17 -162 -13 l-27 -20 -3 23 c-3 19 -8 22 -38
19z"/>
<path d="M2603 1169 c-41 -12 -63 -44 -63 -91 0 -63 42 -86 183 -103 72 -9
105 -32 88 -63 -21 -40 -147 -42 -234 -4 l-44 19 11 -38 c11 -41 11 -41 127
-54 75 -9 160 9 189 40 27 28 30 88 5 114 -18 21 -72 37 -155 47 -80 9 -100
19 -100 48 0 15 8 30 19 36 31 16 131 11 189 -9 l53 -18 -7 31 c-3 17 -7 32
-8 33 -2 2 -26 7 -56 13 -64 12 -153 12 -197 -1z"/>
<path d="M1175 1005 l0 -165 40 0 40 0 -3 165 -3 165 -37 0 -37 0 0 -165z"/>
<path d="M273 640 c-114 -23 -165 -91 -164 -221 0 -110 43 -172 136 -198 52
-14 189 -13 240 3 36 10 40 15 43 48 l3 36 -43 -21 c-33 -17 -61 -22 -118 -21
-136 0 -184 44 -185 166 0 77 19 111 76 140 45 24 148 23 217 -1 l52 -18 -6
36 c-4 20 -7 37 -8 38 -4 5 -143 23 -171 22 -16 -1 -49 -5 -72 -9z"/>
<path d="M578 438 c3 -143 14 -183 55 -208 43 -27 121 -26 165 0 17 11 32 24
32 30 0 5 4 10 8 10 5 0 7 -13 4 -30 -4 -29 -3 -30 38 -30 34 0 41 3 36 16 -3
9 -6 85 -6 170 l0 154 -37 0 -38 0 3 -96 c4 -106 -6 -143 -46 -174 -34 -27
-96 -26 -123 1 -18 18 -20 30 -17 145 l3 124 -40 0 -40 0 3 -112z"/>
<path d="M965 302 l0 -247 40 0 41 0 -4 92 c-3 51 0 93 4 93 5 0 18 -7 28 -15
28 -21 132 -20 176 3 45 22 80 89 80 152 0 63 -35 130 -80 152 -43 22 -134 23
-174 3 -35 -18 -36 -18 -36 0 0 11 -11 15 -37 15 l-38 0 0 -248z m267 171 c20
-21 23 -35 23 -95 0 -64 -2 -72 -28 -94 -40 -34 -118 -34 -152 0 -62 62 -33
209 43 218 51 6 90 -4 114 -29z"/>
</g>
</svg>
